<?xml version="1.0" encoding="utf-8"?>
<svg viewBox="2244.534 2256.977 4499.208 4498.226" xmlns="http://www.w3.org/2000/svg">
  <g style="transform:none">
    <g style="transform:none" fill="#FFFFFF">
      <path d="M4291 6750c-341-33-715-160-991-336-355-227-646-551-828-925-384-788-276-1719 280-2407 246-305 601-556 978-694 249-90 478-130 755-131 267-1 467 30 708 109 586 192 1046 592 1322 1149 111 225 184 466 216 715 19 142 16 442-4 581-64 432-236 817-515 1149-353 422-885 711-1432 780-122 15-379 20-489 10zm332-50c571-39 1068-271 1462-681 646-672 793-1676 369-2509-319-627-926-1068-1625-1179-134-22-332-30-473-20-523 37-995 243-1367 597-276 263-465 559-583 917-74 224-106 429-106 680 0 262 34 467 117 708 286 838 1051 1427 1930 1486 65 5 120 9 123 9 3 1 72-3 153-8z"/>
      <path d="M4397 6644c-4-4-7-16-7-26 0-14 6-19 23-16 14 2 22 10 22 23 0 20-25 32-38 19zM4496 6635c-8-22 1-35 25-35 15 0 20 6 17 22-4 27-33 36-42 13zM4611 6637c-15-15-14-34 2-39 20-8 37 2 37 22 0 22-23 33-39 17zM4284 6625c-4-9-2-21 4-27 15-15 44-1 40 19-4 23-36 29-44 8zM4723 6633c-7-3-13-13-13-23 0-19 17-30 38-23 6 3 12 13 12 23 0 19-17 30-37 23zM4181 6616c-16-19-6-36 20-36 15 0 20 6 17 22-4 27-21 33-37 14zM4818 6608c-8-21 2-38 22-38 19 0 30 17 23 38-3 6-13 12-23 12s-20-6-22-12zM4074 6595c-4-9-2-21 4-27 15-15 44-1 40 19-4 23-36 29-44 8zM4924 6585c-4-9-2-21 4-27 15-15 44-1 40 19-4 23-36 29-44 8zM3966 6575c-8-22 1-35 25-35 15 0 20 6 17 22-4 27-33 36-42 13zM5035 6564c-12-12-13-19-5-29 15-18 40-8 40 15 0 27-16 33-35 14zM3864 6546c-8-21 3-36 27-36 15 0 20 6 17 22-4 27-35 37-44 14zM5143 6543c-15-5-17-39-4-47 16-10 41 5 41 24s-17 30-37 23zM4230 6525c-279-39-562-138-785-275-202-123-449-347-579-523-255-345-388-726-403-1148-12-349 53-660 201-964 109-221 235-393 422-576 317-308 708-495 1159-555 160-21 444-14 600 15 433 81 796 270 1092 570 504 508 705 1228 536 1921-177 732-760 1315-1493 1493-224 55-532 72-750 42zm475-45c295-34 615-146 850-297 529-342 858-883 917-1511 10-106 10-125-3-133-8-5-108-9-224-9-199 0-212 1-249 23-78 44-76 31-76 567 0 441-2 478-19 515-36 77-95 115-181 115-62 0-97-13-139-53-64-61-61-8-61-1005v-908l-22-44c-50-99-185-108-250-18l-23 33-5 1197-5 1196-30 43c-80 113-250 113-330 0l-30-43-5-1631c-4-1211-8-1637-17-1652-34-59-113-92-177-74-37 10-80 52-95 92-8 19-11 396-11 1198v1169l-22 46c-50 108-214 141-305 61-76-67-73-23-73-847 0-696-1-737-19-770-54-103-196-108-256-8-19 32-20 55-25 613-6 650-2 620-80 671-109 72-239 39-297-76-23-44-23-50-23-435 0-372-1-392-20-423-43-70-138-93-207-51-56 35-66 66-72 229-7 172-13 187-101 248-21 15-59 18-265 22l-240 5 3 90c5 176 57 417 129 599 185 471 545 856 1003 1075 321 153 711 220 1055 181zm412-291c55-52 53 7 53-1259 0-959 2-1176 13-1203 13-29 87-106 105-107 4-1 27-5 51-9 89-17 179 33 215 121 14 33 16 148 16 945 0 845 1 910 18 943 53 107 205 107 260 0 22-44 22-46 22-516 0-310 4-482 11-501 15-40 57-82 104-104 35-16 67-19 263-19 200 0 223-2 229-17 9-24-13-229-37-348-91-449-341-862-694-1148-611-495-1450-587-2141-234-631 323-1036 933-1090 1642-3 44-2 86 3 93 7 11 56 13 233 10 213-3 226-4 255-25 53-38 64-75 64-214 0-104 3-129 21-166 39-80 132-131 211-116 43 8 98 36 119 59 49 55 49 59 49 471 0 357 2 391 19 429 48 107 199 113 261 12 19-32 20-52 20-598v-566l23-44c12-24 39-57 60-74 31-25 49-31 102-34 82-5 140 21 181 80l29 41 5 756c5 703 6 758 23 789 24 44 72 72 125 72 54 0 94-20 124-62l23-33 5-1196 5-1195 28-43c38-57 119-96 183-87 65 8 120 41 151 88l28 42 5 1630c4 1210 8 1636 17 1651 47 82 164 104 230 44zM3773 6523c-7-3-13-13-13-24 0-14 7-19 25-19s25 5 25 19c0 20-17 31-37 24zM5234 6495c-4-9-2-21 4-27 15-15 44-1 40 19-4 23-36 29-44 8zM3667 6483c-4-3-7-15-7-25 0-23 38-25 47-2 8 21-24 43-40 27zM5337 6464c-4-4-7-16-7-26 0-14 6-19 23-16 14 2 22 10 22 23 0 20-25 32-38 19zM3570 6435c-16-19-5-47 17-43s29 43 9 51c-8 3-20-1-26-8zM5427 6406c-7-19 18-40 39-32 8 3 14 14 12 23-4 22-43 29-51 9zM3470 6371c0-27 19-36 37-18s9 37-18 37c-12 0-19-7-19-19zM5524 6355c-4-9-2-21 4-27 15-15 44-1 40 19-4 23-36 29-44 8zM3374 6325c-4-9-2-21 4-27 15-15 44-1 40 19-4 23-36 29-44 8zM5620 6305c-10-12-10-18 0-29 16-20 42-8 38 17-4 26-21 32-38 12zM3283 6264c-3-8-1-20 5-26 16-16 42-2 42 22s-38 28-47 4zM5703 6234c-7-18 14-35 34-27 7 3 13 14 13 24 0 24-38 26-47 3zM3198 6208c-7-18 2-38 16-38 18 0 35 21 29 36-6 17-39 18-45 2zM5794 6175c-4-9-2-21 4-27 15-15 44-1 40 19-4 23-36 29-44 8zM3121 6147c-16-16-14-34 5-41 21-8 34 1 34 24 0 22-23 33-39 17z"/>
      <path d="M5874 6105c-4-9-2-21 4-27 15-15 44-1 40 19-4 23-36 29-44 8zM3033 6064c-3-8-1-20 5-26 16-16 42-2 42 22s-38 28-47 4zM5957 6044c-4-4-7-16-7-26 0-14 6-19 23-16 14 2 22 10 22 23 0 20-25 32-38 19zM2956 5995c-8-22 1-35 25-35 15 0 20 6 17 22-4 27-33 36-42 13zM6023 5954c-3-8-1-20 5-26 16-16 42-2 42 22s-38 28-47 4zM2884 5915c-4-9-2-21 4-27 15-15 44-1 40 19-4 23-36 29-44 8zM6098 5878c-7-18 2-38 16-38 18 0 35 21 29 36-6 17-39 18-45 2zM2814 5836c-8-21 13-46 32-39 20 8 13 47-9 51-9 2-20-4-23-12zM6164 5796c-8-21 3-36 27-36 15 0 20 6 17 22-4 27-35 37-44 14zM2752 5738c4-27 33-36 42-13 8 22-1 35-25 35-15 0-20-6-17-22zM6224 5706c-8-21 3-36 27-36 15 0 20 6 17 22-4 27-35 37-44 14zM2690 5651c0-27 19-36 37-18s9 37-18 37c-12 0-19-7-19-19zM6284 5615c-4-9-2-21 4-27 15-15 44-1 40 19-4 23-36 29-44 8zM2634 5565c-4-9-2-21 4-27 15-15 44-1 40 19-4 23-36 29-44 8zM6343 5529c-16-16-5-39 17-39 25 0 35 18 20 35-15 18-22 19-37 4zM2587 5484c-4-4-7-16-7-26 0-14 6-19 23-16 14 2 22 10 22 23 0 20-25 32-38 19zM6387 5433c-12-11-7-33 8-39 20-8 45 13 38 32-5 14-34 19-46 7zM2536 5374c-4-10-2-22 3-27 14-14 43 0 39 20-4 24-34 28-42 7zM6430 5321c0-27 19-36 37-18s9 37-18 37c-12 0-19-7-19-19zM2494 5275c-4-9-2-21 4-27 15-15 44-1 40 19-4 23-36 29-44 8zM6470 5221c0-27 19-36 37-18s9 37-18 37c-12 0-19-7-19-19zM2467 5183c-15-14-7-43 12-43 24 0 33 13 25 34-6 16-25 21-37 9zM6504 5125c-4-9-2-21 4-27 15-15 44-1 40 19-4 23-36 29-44 8zM2443 5083c-16-6-17-39-2-49 6-3 18 1 27 10 14 14 14 18 2 30-8 7-21 12-27 9zM6537 5034c-4-4-7-16-7-26 0-14 6-19 23-16 14 2 22 10 22 23 0 20-25 32-38 19zM2404 4965c-4-9-2-21 4-27 15-15 44-1 40 19-4 23-36 29-44 8zM6553 4914c-3-8-1-20 5-26 16-16 42-2 42 22s-38 28-47 4zM2393 4873c-17-6-17-40 0-46 20-8 39 8 35 28-3 20-16 26-35 18zM6574 4815c-7-18 3-35 21-35s26 15 19 34c-8 20-33 21-40 1zM2368 4758c-8-21 2-38 22-38 19 0 34 25 24 41-8 13-41 11-46-3zM6584 4705c-4-9-2-21 4-27 15-15 44-1 40 19-4 23-36 29-44 8zM2357 4646c-3-8 0-19 7-25 18-15 48-3 44 18s-44 27-51 7zM6603 4613c-16-6-17-39-2-49 6-3 18 1 27 10 14 14 14 18 2 30-8 7-21 12-27 9zM2361 4546c-16-19-6-36 20-36 15 0 20 6 17 22-4 27-21 33-37 14zM6592 4478c2-15 10-23 23-23 30 0 27 39-3 43-20 3-23 0-20-20zM2360 4435c-15-17-5-35 20-35 22 0 33 23 17 39-15 15-22 14-37-4zM6590 4384c-11-12-11-18 2-30 14-14 17-14 32 1 13 13 14 20 5 31-15 18-24 18-39-2zM2364 4325c-4-9-2-21 4-27 15-15 44-1 40 19-4 23-36 29-44 8zM6578 4278c-8-21 2-38 22-38 19 0 30 17 23 38-3 6-13 12-23 12s-20-6-22-12zM2374 4219c-8-14 21-43 35-35 19 12 13 46-8 46-11 0-23-5-27-11zM6563 4164c-3-8-1-20 5-26 16-16 42-2 42 22s-38 28-47 4zM2394 4115c-4-9-2-21 4-27 15-15 44-1 40 19-4 23-36 29-44 8zM6547 4074c-4-4-7-16-7-26 0-13 7-18 26-18 21 0 25 4 22 22-3 23-27 35-41 22zM2419 4014c-10-12-9-18 3-31 19-18 38-10 38 17 0 24-25 33-41 14zM6514 3959c-3-6 1-18 10-27 15-15 17-15 32 0 19 19 11 38-16 38-10 0-22-5-26-11zM2444 3905c-4-9-2-21 4-27 15-15 44-1 40 19-4 23-36 29-44 8zM6486 3861c-10-16 5-41 25-41 14 0 19 7 19 25s-5 25-19 25c-11 0-22-4-25-9zM2480 3795c0-18 5-25 19-25 23 0 34 23 18 39-19 19-37 12-37-14zM6454 3755c-7-18 3-35 22-35 20 0 30 30 13 41-20 12-29 11-35-6zM2518 3708c-8-21 2-38 24-38 14 0 19 6 16 22-3 25-33 36-40 16zM6412 3648c2-15 10-23 23-23 30 0 27 39-3 43-20 3-23 0-20-20zM2564 3605c-4-9-2-21 4-27 15-15 44-1 40 19-4 23-36 29-44 8zM6364 3555c-4-9-2-21 4-27 15-15 44-1 40 19-4 23-36 29-44 8zM2623 3523c-16-6-17-39-2-49 6-3 18 1 27 10 14 14 14 18 2 30-8 7-21 12-27 9zM6317 3474c-4-4-7-16-7-26 0-14 6-19 23-16 14 2 22 10 22 23 0 20-25 32-38 19zM2662 3408c4-30 43-33 43-3 0 13-8 21-23 23-20 3-23 0-20-20zM6261 3376c-16-19-6-36 20-36 15 0 20 6 17 22-4 27-21 33-37 14zM2722 3318c2-15 10-23 23-23 30 0 27 39-3 43-20 3-23 0-20-20zM6201 3286c-16-19-6-36 20-36 15 0 20 6 17 22-4 27-21 33-37 14zM2793 3253c-15-5-17-39-4-47 16-10 41 5 41 24s-17 30-37 23zM6134 3195c-4-9-2-21 4-27 15-15 44-1 40 19-4 23-36 29-44 8zM2852 3148c4-27 33-36 42-13 8 22-1 35-25 35-15 0-20-6-17-22zM6064 3116c-8-21 3-36 27-36 15 0 20 6 17 22-4 27-35 37-44 14zM2917 3076c-7-19 18-40 39-32 8 3 14 14 12 23-4 22-43 29-51 9zM5990 3025c0-18 5-25 19-25 24 0 33 13 25 34-10 27-44 20-44-9zM2993 2994c-6-17 14-36 32-31 6 2 11 13 13 25 3 17-2 22-18 22-11 0-23-7-27-16zM5923 2973c-15-5-17-39-4-47 16-10 41 5 41 24s-17 30-37 23zM3074 2925c-4-9-2-21 4-27 15-15 44-1 40 19-4 23-36 29-44 8zM5843 2903c-15-5-17-39-4-47 16-10 41 5 41 24s-17 30-37 23zM3154 2855c-4-9-2-21 4-27 15-15 44-1 40 19-4 23-36 29-44 8zM5750 2815c0-18 5-25 19-25 26 0 36 17 21 35-19 23-40 18-40-10zM3247 2803c-4-3-7-15-7-25 0-23 38-25 47-2 8 21-24 43-40 27zM5667 2773c-22-21 2-56 31-46 17 7 15 40-4 47s-19 7-27-1zM3343 2743c-21-8-15-43 6-43 11 0 23 5 27 11 8 14-17 38-33 32zM5574 2705c-7-18 3-35 22-35 20 0 30 30 13 41-20 12-29 11-35-6zM3424 2675c-4-9-2-21 4-27 15-15 44-1 40 19-4 23-36 29-44 8zM5477 2646c-9-22 19-42 37-26 19 15 10 40-14 40-10 0-20-6-23-14zM3513 2624c-3-8-1-20 5-26 16-16 42-2 42 22s-38 28-47 4zM5393 2613c-7-3-13-13-13-24 0-14 7-19 25-19s25 5 25 19c0 20-17 31-37 24zM3613 2574c-3-8-1-20 5-26 16-16 42-2 42 22s-38 28-47 4zM5283 2554c-3-8-1-20 5-26 16-16 42-2 42 22s-38 28-47 4zM3714 2535c-4-9-2-21 4-27 15-15 44-1 40 19-4 23-36 29-44 8zM5183 2514c-7-18 14-35 34-27 7 3 13 14 13 24 0 24-38 26-47 3zM3821 2511c-19-12-6-41 19-41 16 0 21 5 18 22-3 25-17 32-37 19zM5084 2485c-4-9-2-21 4-27 15-15 44-1 40 19-4 23-36 29-44 8zM3927 2483c-10-9-8-41 2-48 5-3 17 2 26 11 12 12 13 19 4 30-13 15-22 18-32 7zM4977 2456c-3-8 1-20 9-27 12-10 18-9 31 3 8 9 12 21 9 27-10 16-43 14-49-3zM4024 2445c-4-9-2-21 4-27 15-15 44-1 40 19-4 23-36 29-44 8zM4874 2435c-4-9-2-21 4-27 15-15 44-1 40 19-4 23-36 29-44 8zM4128 2428c-8-21 2-38 22-38 19 0 30 17 23 38-3 6-13 12-23 12s-20-6-22-12zM4243 2423c-7-3-13-13-13-23 0-19 17-30 38-23 6 3 12 13 12 23 0 19-17 30-37 23zM4767 2416c-3-8 1-20 9-27 12-10 18-9 31 3 8 9 12 21 9 27-10 16-43 14-49-3zM4347 2413c-12-11-8-41 7-46 15-6 36 11 36 29 0 6-7 15-16 18-19 7-19 7-27-1zM4664 2405c-4-9-2-21 4-27 15-15 44-1 40 19-4 23-36 29-44 8zM4448 2398c-7-18 2-38 16-38 18 0 35 21 29 36-6 17-39 18-45 2zM4553 2394c-3-8-1-20 5-26 16-16 42-2 42 22s-38 28-47 4z"/>
    </g>
  </g>
</svg>