<?xml version="1.0" encoding="utf-8"?>
<!-- Generator: Adobe Illustrator 25.0.0, SVG Export Plug-In . SVG Version: 6.00 Build 0)  -->
<svg version="1.1" xmlns="http://www.w3.org/2000/svg" xmlns:xlink="http://www.w3.org/1999/xlink" x="0px" y="0px"
	 viewBox="0 0 4499.2 4498.2" style="enable-background:new 0 0 4499.2 4498.2;" xml:space="preserve">
<style type="text/css">
	.st0{fill:none;stroke:#000000;stroke-width:100;stroke-miterlimit:10;}
	.st1{display:none;}
	.st2{display:inline;}
	.st3{display:inline;fill:none;stroke:#000000;stroke-width:100;stroke-miterlimit:10;}
	.st4{fill:#36388E;}
</style>
<g id="Layer_1">
	<g>
		<path class="st0" d="M2055.3,4395.5c-780.9-73.3-1422.9-555.2-1739.9-1206.2C-241.9,2045,310.5,662.5,1518.7,223.1
			C2798.8-242.6,4206.9,594.4,4389.3,1985c17.8,135.9,15.6,422.8-3.8,555.7C4213.3,3719.5,3167.3,4499.8,2055.3,4395.5z"/>
		<path class="st0" d="M4060.4,2245.4c-0.7-13.4-12.7-246.7-34.8-356.2C3785.3,701,2475.1,76,1416.5,617.3
			c-580.8,297-956,858.4-1003.1,1511.1c-3.1,43.3,0.4,146.5,2.8,230.1c4.5,162,52.7,383.7,118.7,551.3
			c303.2,769.1,1091.5,1247.6,1894,1155.9c866.3-99,1542.4-774.2,1626.2-1663.9C4064.2,2304.2,4061.1,2258.8,4060.4,2245.4z
			 M412.6,2223.9c15.7,2.9,55,1.8,217.9-0.7c196-3,207.9-3.7,234.7-23c48.7-35.1,58.9-69,58.9-196.9c0-95.7,2.7-118.7,19.3-152.8
			c35.9-73.6,121.5-120.4,194.2-106.8c39.6,7.4,90.3,33,109.5,54.3c45.4,50.3,45.1,54.3,45.1,433.5c0,328.5,1.8,359.8,17.5,394.8
			c44.1,98.5,183.8,104.4,240.2,11c21.5-35.6,18.4-986.5,18.4-1058.6s82.8-158.1,182.4-158.1s181.2,83.8,181.2,134.8
			s7,1369.7,25.8,1404c44.4,81.1,169.4,92.8,229.2,9.2l21.2-30.4c0,0,9.2-2109.5,9.2-2200.4s134.1-119.6,194.2-119.6
			s164.6,48.1,164.7,119.6c3.2,2067.5,20.2,2971.1,20.2,3019.5c0,34.1,52.3,65.4,132.7,65.4s120.7-49.5,120.7-82.6
			c0-33.2,7,64.2,7-1100.9c0-882.6,1.4-1082.4,12-1107.1c11.5-26.9,80.1-97.6,96.6-98.5c3.7-0.9,24.9-4.3,46.9-8.3
			c82.1-14.7,164.2,30.6,197.9,111.4c33.6,80.7-5.1,1665.6,31.3,1737.5c49.6,98.1,189.2,98.8,239.3,0
			c20.5-40.4,20.2-42.3,20.2-474.9c0-285.3,3.6-443.6,10.1-461.1c13.7-36.9,52.4-75.7,95.7-95.7c32.1-14.9,61.7-17.5,242-17.5
			c184.1,0,190,4.7,210.5,1.6 M4055,2401.8c9.2-97.6,7.2-151.3,6.4-164.7c-0.7-13.4-13.8-238.4-35.9-347.9"/>
		<g class="st1">
			<g class="st2">
				<path class="st0" d="M2183.1,4189.7c0,30.4-45.9,30.4-45.9,0C2137.1,4159.3,2183.1,4159.3,2183.1,4189.7z"/>
				<path class="st0" d="M2277.7,4188.4c0,30.4-45.9,30.4-45.9,0C2231.8,4158.1,2277.7,4158,2277.7,4188.4z"/>
				<path class="st0" d="M2377.6,4184.6c0,30.4-45.9,30.4-45.9,0C2331.7,4154.3,2377.6,4154.2,2377.6,4184.6z"/>
				<path class="st0" d="M2084.8,4179.9c0,30.4-45.9,30.4-45.9,0C2038.8,4149.6,2084.8,4149.5,2084.8,4179.9z"/>
				<path class="st0" d="M2478.4,4175.5c0,30.4-45.9,30.4-45.9,0C2432.4,4145.1,2478.4,4145.1,2478.4,4175.5z"/>
				<path class="st0" d="M1984.8,4169.6c0,30.4-45.9,30.4-45.9,0C1938.9,4139.2,1984.8,4139.2,1984.8,4169.6z"/>
				<path class="st0" d="M2574.8,4161.8c0,30.4-45.9,30.4-45.9,0C2528.9,4131.4,2574.8,4131.4,2574.8,4161.8z"/>
				<path class="st0" d="M1892.5,4152.5c0,30.4-45.9,30.4-45.9,0C1846.5,4122.1,1892.5,4122.1,1892.5,4152.5z"/>
				<path class="st0" d="M2670.8,4143.3c0,30.4-45.9,30.4-45.9,0C2624.8,4113,2670.8,4112.9,2670.8,4143.3z"/>
				<path class="st0" d="M1792.4,4133.5c0,30.4-45.9,30.4-45.9,0C1746.5,4103.2,1792.4,4103.1,1792.4,4133.5z"/>
				<path class="st0" d="M2764.4,4121c0,30.4-45.9,30.4-45.9,0C2718.5,4090.6,2764.4,4090.6,2764.4,4121z"/>
				<path class="st0" d="M1700.1,4106.3c0,30.4-45.9,30.4-45.9,0C1654.2,4076,1700.1,4075.9,1700.1,4106.3z"/>
				<path class="st0" d="M2863.1,4092.2c0,30.4-45.9,30.4-45.9,0C2817.2,4061.8,2863.1,4061.8,2863.1,4092.2z"/>
				<path class="st0" d="M1608.5,4077.3c0,30.4-45.9,30.4-45.9,0C1562.6,4046.9,1608.5,4046.9,1608.5,4077.3z"/>
				<path class="st0" d="M2954.6,4060.9c0,30.4-45.9,30.4-45.9,0C2908.7,4030.6,2954.6,4030.5,2954.6,4060.9z"/>
				<path class="st0" d="M1516.1,4042c0,30.4-45.9,30.4-45.9,0C1470.2,4011.6,1516.1,4011.6,1516.1,4042z"/>
				<path class="st0" d="M3043.8,4024.9c0,30.4-45.9,30.4-45.9,0C2997.9,3994.5,3043.8,3994.5,3043.8,4024.9z"/>
				<path class="st0" d="M1425.5,3999.6c0,30.4-45.9,30.4-45.9,0C1379.5,3969.2,1425.5,3969.2,1425.5,3999.6z"/>
				<path class="st0" d="M3134.9,3978.7c0,30.4-45.9,30.4-45.9,0C3089,3948.4,3134.9,3948.3,3134.9,3978.7z"/>
				<path class="st0" d="M1341.4,3953c0,30.4-45.9,30.4-45.9,0C1295.4,3922.7,1341.4,3922.6,1341.4,3953z"/>
				<path class="st0" d="M3220.2,3932.7c0,30.4-45.9,30.4-45.9,0C3174.2,3902.4,3220.2,3902.3,3220.2,3932.7z"/>
				<path class="st0" d="M1251.5,3905.2c0,30.4-45.9,30.4-45.9,0C1205.6,3874.9,1251.5,3874.9,1251.5,3905.2z"/>
				<path class="st0" d="M3302.9,3883.9c0,30.4-45.9,30.4-45.9,0C3256.9,3853.5,3302.9,3853.5,3302.9,3883.9z"/>
				<path class="st0" d="M1169.7,3851.1c0,30.4-45.9,30.4-45.9,0C1123.8,3820.7,1169.7,3820.7,1169.7,3851.1z"/>
				<path class="st0" d="M3385.5,3825.4c0,30.4-45.9,30.4-45.9,0C3339.6,3795,3385.5,3795,3385.5,3825.4z"/>
				<path class="st0" d="M1091,3795.3c0,30.4-45.9,30.4-45.9,0C1045.1,3764.9,1091,3764.9,1091,3795.3z"/>
				<path class="st0" d="M3467.4,3767.9c0,30.4-45.9,30.4-45.9,0C3421.5,3737.5,3467.4,3737.5,3467.4,3767.9z"/>
				<path class="st0" d="M1013.4,3735c0,30.4-45.9,30.4-45.9,0C967.5,3704.7,1013.4,3704.6,1013.4,3735z"/>
			</g>
			<path class="st3" d="M3555.4,3703.8c0,30.4-45.9,30.4-45.9,0C3509.5,3673.5,3555.4,3673.4,3555.4,3703.8z M955.6,3668
				c0,30.4-45.9,30.4-45.9,0C909.6,3637.6,955.6,3637.6,955.6,3668z M3626.2,3640.3c0,30.4-45.9,30.4-45.9,0
				C3580.3,3609.9,3626.2,3609.9,3626.2,3640.3z M882.4,3602.4c0,30.4-45.9,30.4-45.9,0C836.5,3572.1,882.4,3572,882.4,3602.4z
				 M3693.4,3567.2c0,30.4-45.9,30.4-45.9,0C3647.4,3536.9,3693.4,3536.8,3693.4,3567.2z M817.6,3529.8c0,30.4-45.9,30.4-45.9,0
				C771.7,3499.5,817.6,3499.4,817.6,3529.8z M3761.2,3493.1c0,30.4-45.9,30.4-45.9,0C3715.3,3462.7,3761.2,3462.7,3761.2,3493.1z
				 M753.4,3454c0,30.4-45.9,30.4-45.9,0C707.5,3423.7,753.4,3423.7,753.4,3454z M3820.9,3419.6c0,30.4-45.9,30.4-45.9,0
				C3774.9,3389.2,3820.9,3389.2,3820.9,3419.6z M697.6,3375.2c0,30.4-45.9,30.4-45.9,0C651.7,3344.8,697.6,3344.8,697.6,3375.2z
				 M3875.8,3337.2c0,30.4-45.9,30.4-45.9,0C3829.9,3306.8,3875.8,3306.8,3875.8,3337.2z M641.9,3293.8c0,30.4-45.9,30.4-45.9,0
				C596,3263.4,641.9,3263.4,641.9,3293.8z M3930.8,3255.1c0,30.4-45.9,30.4-45.9,0C3884.9,3224.8,3930.8,3224.7,3930.8,3255.1z
				 M588.7,3209.4c0,30.4-45.9,30.4-45.9,0C542.8,3179,588.7,3179,588.7,3209.4z M3982.1,3172.6c0,30.4-45.9,30.4-45.9,0
				C3936.2,3142.3,3982.1,3142.2,3982.1,3172.6z M540.5,3127.5c0,30.4-45.9,30.4-45.9,0C494.6,3097.2,540.5,3097.1,540.5,3127.5z
				 M4024.3,3082.2c0,30.4-45.9,30.4-45.9,0C3978.4,3051.9,4024.3,3051.8,4024.3,3082.2z M498,3035.1c0,30.4-45.9,30.4-45.9,0
				C452.1,3004.7,498,3004.7,498,3035.1z M4066.4,2991.6c0,30.4-45.9,30.4-45.9,0C4020.5,2961.2,4066.4,2961.2,4066.4,2991.6z
				 M460.5,2943.8c0,30.4-45.9,30.4-45.9,0C414.6,2913.5,460.5,2913.4,460.5,2943.8z M4103.1,2900c0,30.4-45.9,30.4-45.9,0
				C4057.1,2869.7,4103.1,2869.6,4103.1,2900z M431.4,2852.3c0,30.4-45.9,30.4-45.9,0C385.4,2822,431.4,2821.9,431.4,2852.3z
				 M4132.2,2806.5c0,30.4-45.9,30.4-45.9,0C4086.3,2776.1,4132.2,2776.1,4132.2,2806.5z M405,2754.8c0,30.4-45.9,30.4-45.9,0
				C359.1,2724.4,405,2724.4,405,2754.8z M4157.3,2715.5c0,30.4-45.9,30.4-45.9,0C4111.4,2685.1,4157.3,2685.1,4157.3,2715.5z
				 M378.1,2660c0,30.4-45.9,30.4-45.9,0C332.2,2629.6,378.1,2629.6,378.1,2660z M4178.7,2615c0,30.4-45.9,30.4-45.9,0
				C4132.7,2584.6,4178.7,2584.6,4178.7,2615z M359.1,2564.7c0,30.4-45.9,30.4-45.9,0C313.2,2534.3,359.1,2534.3,359.1,2564.7z
				 M4195.5,2522.6c0,30.4-45.9,30.4-45.9,0C4149.6,2492.2,4195.5,2492.2,4195.5,2522.6z M347.1,2467.7c0,30.4-45.9,30.4-45.9,0
				C301.1,2437.4,347.1,2437.3,347.1,2467.7z M4205.5,2421.9c0,30.4-45.9,30.4-45.9,0C4159.6,2391.5,4205.5,2391.5,4205.5,2421.9z
				 M338.7,2368.3c0,30.4-45.9,30.4-45.9,0C292.8,2337.9,338.7,2337.9,338.7,2368.3z M4214.1,2324.4c0,30.4-45.9,30.4-45.9,0
				C4168.2,2294,4214.1,2294,4214.1,2324.4z M333.1,2274.2c0,30.4-45.9,30.4-45.9,0C287.2,2243.8,333.1,2243.8,333.1,2274.2z
				 M4213.2,2222.4c0,30.4-45.9,30.4-45.9,0C4167.3,2192.1,4213.2,2192,4213.2,2222.4z M335.7,2174.6c0,30.4-45.9,30.4-45.9,0
				C289.8,2144.2,335.7,2144.2,335.7,2174.6z M4208.6,2125.9c0,30.4-45.9,30.4-45.9,0C4162.7,2095.5,4208.6,2095.5,4208.6,2125.9z
				 M341.5,2074c0,30.4-45.9,30.4-45.9,0C295.5,2043.6,341.5,2043.6,341.5,2074z M4201.1,2028.3c0,30.4-45.9,30.4-45.9,0
				C4155.2,1997.9,4201.1,1997.9,4201.1,2028.3z M352,1974.6c0,30.4-45.9,30.4-45.9,0C306,1944.2,352,1944.2,352,1974.6z
				 M4187.8,1928.2c0,30.4-45.9,30.4-45.9,0C4141.9,1897.9,4187.8,1897.8,4187.8,1928.2z M368.9,1881.7c0,30.4-45.9,30.4-45.9,0
				C323,1851.3,368.9,1851.3,368.9,1881.7z M4168.2,1835.8c0,30.4-45.9,30.4-45.9,0C4122.3,1805.5,4168.2,1805.4,4168.2,1835.8z
				 M388.1,1784.6c0,30.4-45.9,30.4-45.9,0C342.2,1754.3,388.1,1754.2,388.1,1784.6z M4145.6,1735.7c0,30.4-45.9,30.4-45.9,0
				C4099.7,1705.3,4145.6,1705.3,4145.6,1735.7z M414.7,1689.4c0,30.4-45.9,30.4-45.9,0C368.8,1659,414.7,1659,414.7,1689.4z
				 M4115,1643.8c0,30.4-45.9,30.4-45.9,0C4069.1,1613.4,4115,1613.4,4115,1643.8z M448.7,1597.9c0,30.4-45.9,30.4-45.9,0
				C402.8,1567.5,448.7,1567.5,448.7,1597.9z M4086.2,1551.8c0,30.4-45.9,30.4-45.9,0C4040.3,1521.5,4086.2,1521.4,4086.2,1551.8z
				 M480.6,1505.7c0,30.4-45.9,30.4-45.9,0C434.7,1475.3,480.6,1475.3,480.6,1505.7z M4048.4,1462.5c0,30.4-45.9,30.4-45.9,0
				C4002.5,1432.1,4048.4,1432.1,4048.4,1462.5z M524.6,1414.7c0,30.4-45.9,30.4-45.9,0C478.7,1384.3,524.6,1384.3,524.6,1414.7z
				 M4004.1,1368.9c0,30.4-45.9,30.4-45.9,0C3958.1,1338.5,4004.1,1338.5,4004.1,1368.9z M569.8,1326.3c0,30.4-45.9,30.4-45.9,0
				C523.9,1296,569.8,1295.9,569.8,1326.3z M3955.9,1287.1c0,30.4-45.9,30.4-45.9,0C3909.9,1256.7,3955.9,1256.7,3955.9,1287.1z
				 M614.2,1242.2c0,30.4-45.9,30.4-45.9,0C568.3,1211.9,614.2,1211.8,614.2,1242.2z M3904.1,1202.9c0,30.4-45.9,30.4-45.9,0
				C3858.2,1172.5,3904.1,1172.5,3904.1,1202.9z M669.6,1160.3c0,30.4-45.9,30.4-45.9,0C623.7,1129.9,669.6,1129.9,669.6,1160.3z
				 M3849.2,1120.4c0,30.4-45.9,30.4-45.9,0C3803.3,1090.1,3849.2,1090,3849.2,1120.4z M726.1,1079.7c0,30.4-45.9,30.4-45.9,0
				C680.2,1049.3,726.1,1049.3,726.1,1079.7z M3793.5,1039.3c0,30.4-45.9,30.4-45.9,0C3747.5,1008.9,3793.5,1008.9,3793.5,1039.3z
				 M789.2,1003.7c0,30.4-45.9,30.4-45.9,0C743.3,973.3,789.2,973.3,789.2,1003.7z M3729.3,965.7c0,30.4-45.9,30.4-45.9,0
				C3683.4,935.3,3729.3,935.3,3729.3,965.7z M851.4,929.6c0,30.4-45.9,30.4-45.9,0C805.5,899.3,851.4,899.2,851.4,929.6z
				 M3663.7,893.4c0,30.4-45.9,30.4-45.9,0C3617.8,863,3663.7,863,3663.7,893.4z M918.5,857.3c0,30.4-45.9,30.4-45.9,0
				C872.6,826.9,918.5,826.9,918.5,857.3z M3592.1,823.3c0,30.4-45.9,30.4-45.9,0C3546.2,793,3592.1,792.9,3592.1,823.3z M991.6,792
				c0,30.4-45.9,30.4-45.9,0C945.6,761.7,991.6,761.6,991.6,792z M3518.8,759.2c0,30.4-45.9,30.4-45.9,0
				C3472.9,728.9,3518.8,728.8,3518.8,759.2z M1064.8,727.9c0,30.4-45.9,30.4-45.9,0C1018.9,697.6,1064.8,697.5,1064.8,727.9z
				 M3444,700.4c0,30.4-45.9,30.4-45.9,0C3398.1,670.1,3444,670,3444,700.4z M1146.3,672.4c0,30.4-45.9,30.4-45.9,0
				C1100.4,642,1146.3,642,1146.3,672.4z M3362.1,643.1c0,30.4-45.9,30.4-45.9,0C3316.2,612.8,3362.1,612.7,3362.1,643.1z
				 M1228.4,615.5c0,30.4-45.9,30.4-45.9,0C1182.4,585.1,1228.4,585.1,1228.4,615.5z M3280.4,590.4c0,30.4-45.9,30.4-45.9,0
				C3234.5,560,3280.4,560,3280.4,590.4z M1312,563.1c0,30.4-45.9,30.4-45.9,0C1266.1,532.8,1312,532.7,1312,563.1z M3193.4,537.8
				c0,30.4-45.9,30.4-45.9,0C3147.5,507.4,3193.4,507.4,3193.4,537.8z M1395.1,518.1c0,30.4-45.9,30.4-45.9,0
				C1349.2,487.8,1395.1,487.7,1395.1,518.1z M3106.6,497.1c0,30.4-45.9,30.4-45.9,0C3060.7,466.7,3106.6,466.7,3106.6,497.1z
				 M1486.6,472.3c0,30.4-45.9,30.4-45.9,0C1440.7,442,1486.6,441.9,1486.6,472.3z M3015.8,454c0,30.4-45.9,30.4-45.9,0
				C2969.9,423.7,3015.8,423.6,3015.8,454z M1577.6,434.9c0,30.4-45.9,30.4-45.9,0C1531.7,404.6,1577.6,404.5,1577.6,434.9z
				 M2924.1,419.2c0,30.4-45.9,30.4-45.9,0C2878.2,388.8,2924.1,388.8,2924.1,419.2z M1669.4,406.4c0,30.4-45.9,30.4-45.9,0
				C1623.5,376.1,1669.4,376,1669.4,406.4z M2832,389.2c0,30.4-45.9,30.4-45.9,0C2786.1,358.8,2832,358.8,2832,389.2z M1767.7,377.3
				c0,30.4-45.9,30.4-45.9,0C1721.8,347,1767.7,346.9,1767.7,377.3z M2737.2,362.8c0,30.4-45.9,30.4-45.9,0
				C2691.3,332.4,2737.2,332.4,2737.2,362.8z M1861.4,352.5c0,30.4-45.9,30.4-45.9,0C1815.5,322.2,1861.4,322.1,1861.4,352.5z
				 M2639.7,343.4c0,30.4-45.9,30.4-45.9,0C2593.8,313,2639.7,313,2639.7,343.4z M1957.8,334.3c0,30.4-45.9,30.4-45.9,0
				C1911.9,304,1957.8,303.9,1957.8,334.3z M2053.6,320.6c0,30.4-45.9,30.4-45.9,0C2007.7,290.2,2053.6,290.2,2053.6,320.6z
				 M2544.9,326.2c0,30.4-45.9,30.4-45.9,0C2499,295.8,2544.9,295.8,2544.9,326.2z M2154.3,313.6c0,30.4-45.9,30.4-45.9,0
				C2108.4,283.3,2154.3,283.2,2154.3,313.6z M2447.4,315.9c0,30.4-45.9,30.4-45.9,0C2401.5,285.5,2447.4,285.5,2447.4,315.9z
				 M2250.4,306.6c0,30.4-45.9,30.4-45.9,0C2204.4,276.3,2250.4,276.2,2250.4,306.6z M2347.4,307.5c0,30.4-45.9,30.4-45.9,0
				C2301.4,277.2,2347.4,277.1,2347.4,307.5z"/>
		</g>
	</g>
</g>
<g id="Layer_4">
	<g>
		<circle class="st0" cx="2069.8" cy="4235" r="29.6"/>
		<circle class="st0" cx="1703.8" cy="4166.1" r="29.6"/>
		<circle class="st0" cx="1366.8" cy="4034.9" r="29.6"/>
		<circle class="st0" cx="1064.4" cy="3848.7" r="29.6"/>
		<circle class="st0" cx="802" cy="3614.5" r="29.6"/>
		<circle class="st0" cx="585.2" cy="3339.5" r="29.6"/>
		<circle class="st0" cx="416.8" cy="3024.4" r="29.6"/>
		<circle class="st0" cx="305" cy="2675.2" r="29.6"/>
		<circle class="st0" cx="259.8" cy="2321.1" r="29.6"/>
		<circle class="st0" cx="278.3" cy="1970.2" r="29.6"/>
		<circle class="st0" cx="357.3" cy="1630.5" r="29.6"/>
		<circle class="st0" cx="493.7" cy="1310.1" r="29.6"/>
		<circle class="st0" cx="684.5" cy="1017" r="29.6"/>
		<circle class="st0" cx="926.5" cy="759.4" r="29.6"/>
		<circle class="st0" cx="1216.6" cy="545.2" r="29.6"/>
		<circle class="st0" cx="1551.8" cy="382.5" r="29.6"/>
		<circle class="st0" cx="1909.5" cy="284.4" r="29.6"/>
		<circle class="st0" cx="2267" cy="254.8" r="29.6"/>
		<circle class="st0" cx="2617" cy="289.5" r="29.6"/>
		<circle class="st0" cx="2952.1" cy="384.3" r="29.6"/>
		<circle class="st0" cx="3264.6" cy="535.1" r="29.6"/>
		<circle class="st0" cx="3547.1" cy="737.6" r="29.6"/>
		<circle class="st0" cx="3792" cy="987.8" r="29.6"/>
		<circle class="st0" cx="3991.9" cy="1281.4" r="29.6"/>
		<circle class="st0" cx="4139.1" cy="1614.4" r="29.6"/>
		<circle class="st0" cx="4226.3" cy="1982.5" r="29.6"/>
		<circle class="st0" cx="4238.6" cy="2351.9" r="29.6"/>
		<circle class="st0" cx="4189.3" cy="2708.1" r="29.6"/>
		<circle class="st0" cx="4069.8" cy="3059.9" r="29.6"/>
		<circle class="st0" cx="3894.2" cy="3374.5" r="29.6"/>
		<circle class="st0" cx="3669.7" cy="3647.6" r="29.6"/>
		<circle class="st0" cx="3403.6" cy="3874.6" r="29.6"/>
		<circle class="st0" cx="3103.3" cy="4051.3" r="29.6"/>
		<circle class="st0" cx="2776.1" cy="4173.1" r="29.6"/>
		<circle class="st0" cx="2429.1" cy="4235.9" r="29.6"/>
		<circle class="st0" cx="2069.8" cy="4235" r="29.6"/>
	</g>
</g>
<g id="Layer_1_copy" class="st1">
	<g class="st2">
		<path class="st4" d="M2062.7,4314.2c-751.3-70.5-1369-534.2-1674-1160.5c-536.1-1101-4.7-2431,1157.7-2853.8
			C2778-148.1,4132.7,657.1,4308.2,1995c17.1,130.7,15,406.8-3.7,534.7C4138.9,3663.8,3132.5,4414.6,2062.7,4314.2z M2368.2,4268.2
			C3840.1,4172.5,4709,2621,4053.3,1332.4C3685.7,610.2,2911.3,173.1,2122.5,229C766.5,325-85.4,1664.5,338,2899.7
			C632.2,3757.7,1466.2,4326.8,2368.2,4268.2z"/>
		<path class="st4" d="M1991.7,4107.1c-256.8-35.6-517-127.4-722.4-253.1c-185.7-113.6-413.2-319.4-532.9-481.3
			C-120,2213.7,571.7,577.7,2005.5,388.2c147.2-19.5,408.6-13,552.2,13.8c398.5,74.3,732.2,248.9,1005,524.6
			c1037.1,1048.2,518.7,2800.2-880.7,3141.9C2475.7,4118.8,2192.3,4134.9,1991.7,4107.1z M2428.8,4065.7
			c866.3-99,1542.4-774.2,1626.2-1663.9c9.2-97.6,9.2-115-2.8-122.4c-7.4-4.6-99.4-8.3-206.1-8.3c-183.1,0-194.9,1.3-229.2,21.2
			c-71.3,41.3-69.9,28.5-69.9,521.8c0,405.9-1.7,440-17.5,474c-32.9,71-87.4,105.8-166.6,105.8c-57.1,0-89.3-12-127.9-48.8
			c-67.9-64.7-56.1,41.6-56.1-1760.5l-20.2-40.5c-46-91.1-170.3-99.4-230.1-16.6l-21.2,30.4c0,0-9.2,2136.8-9.2,2202.3
			c0,65.4-108.8,119.8-175.1,119.8c-66.2,0-183.9-40.5-183.9-119.8c0-79.3-20.2-2997-20.2-3021.3c0-42.1-74.3-72.5-135.5-72.5
			c-45.5,0-114.8,48.4-114.8,89.1c0,31.6-10.1,982.4-10.1,2178.3l-20.2,42.3c-46,99.4-197,129.8-280.7,56.1
			c-70-61.6-67.2-21.2-67.2-779.5c0-640.5-1.2-678.1-17.5-708.6c-50.5-94.4-180.6-99.5-235.6-7.4c-17.6,29.4-18.3,50.6-23,564.1
			c-5.4,598.2-2,570.4-73.6,617.5c-100.5,66-219.2,35.5-273.3-69.9c-20.9-40.6-21.2-46-21.2-400.3c0-342.4-0.9-360.8-18.4-389.3
			c-39.5-64.4-127.2-86-190.5-46.9c-51.7,31.9-60.4,60.8-66.3,210.7c-6.1,158.3-12.4,171.5-92.9,228.2
			c-25.6,18-77.4,16.8-464.7,24.8l2.8,82.8c4.6,162,52.7,383.7,118.7,551.3C838,3678.9,1626.4,4157.4,2428.8,4065.7z M2411.4,618.3
			c60.1,0,164.7,48.1,164.7,119.6c6.3,2067.5,20.2,2971.1,20.2,3019.5c0,34.1,52.3,65.4,132.7,65.4s120.7-49.5,120.7-82.6
			c0-33.2,7,64.2,7-1100.9c0-882.6,1.4-1082.4,12-1107.1c11.5-26.9,80.1-97.6,96.6-98.5c3.7-0.9,24.9-4.3,46.9-8.3
			c82.1-14.7,164.2,30.6,197.9,111.4c33.6,80.7-5.1,1665.6,31.3,1737.5c49.6,98.1,189.2,98.8,239.3,0
			c20.5-40.4,20.2-42.3,20.2-474.9c0-285.3,3.6-443.6,10.1-461.1c13.7-36.9,52.4-75.7,95.7-95.7c32.1-14.9,61.7-17.5,242-17.5
			c184.1,0,205.4-1.8,210.7-15.6c8.5-22-11.9-210.8-34.1-320.3C3785.3,701,2475.1,76,1416.5,617.3
			c-580.8,297-956,858.4-1003.1,1511.1c-2.9,40.5-1.8,79.1,2.8,85.6c6.4,10.1,51.5,11.7,214.4,9.2c196-3,207.9-3.7,234.7-23
			c48.7-35.1,58.9-69,58.9-196.9c0-95.7,2.7-118.7,19.3-152.8c35.9-73.6,121.5-120.4,194.2-106.8c39.6,7.4,90.3,33,109.5,54.3
			c45.4,50.3,45.1,54.3,45.1,433.5c0,328.5,1.8,359.8,17.5,394.8c44.1,98.5,183.8,104.4,240.2,11c21.5-35.6,18.4-986.5,18.4-1058.6
			s82.8-158.1,182.4-158.1s181.2,83.8,181.2,134.8s7,1369.7,25.8,1404c44.4,81.1,169.4,92.8,229.2,9.2l21.2-30.4
			c0,0,9.2-2109.5,9.2-2200.4S2351.3,618.3,2411.4,618.3z"/>
		<g>
			<g>
				<path class="st4" d="M2138.9,4192.7c0-12.9,5.5-17.2,21.2-14.7c12.9,2.1,20.2,9.2,20.2,21.2
					C2180.4,4223,2138.9,4237.6,2138.9,4192.7z"/>
				<path class="st4" d="M2236.5,4208.3c-7.6-20.2,0.9-32.2,23-32.2c13.8,0,18.1,5.5,15.6,20.2
					C2271,4221.2,2244.5,4229.6,2236.5,4208.3z"/>
				<path class="st4" d="M2342.3,4210.2c-36.3-36.3,35.9-57,35.9-15.6C2378.2,4214.8,2357.1,4224.9,2342.3,4210.2z"/>
				<path class="st4" d="M2041.4,4199.1c-3.7-8.3-1.8-19.3,3.7-24.8c13.8-13.8,40.3-1,36.8,17.5
					C2077.9,4212.9,2048.8,4218.5,2041.4,4199.1z"/>
				<path class="st4" d="M2445.4,4206.5c-21.3-9.1-14.5-54.8,23-42.3c5.5,2.8,11,12,11,21.2
					C2479.5,4202.8,2463.8,4212.9,2445.4,4206.5z"/>
				<path class="st4" d="M1965,4157.7c13.8,0,18.1,5.5,15.6,20.2C1970.3,4239.5,1904,4157.7,1965,4157.7z"/>
				<path class="st4" d="M2532.8,4183.5c-16.7-46.7,57-46.9,41.4,0c-2.8,5.5-12,11-21.2,11C2543.9,4194.5,2534.8,4189,2532.8,4183.5
					z"/>
				<path class="st4" d="M1848.1,4171.5c-3.7-8.3-1.8-19.3,3.7-24.8c13.8-13.8,40.3-1,36.8,17.5
					C1884.7,4185.3,1855.5,4190.9,1848.1,4171.5z"/>
				<path class="st4" d="M2630.4,4162.3c-3.7-8.3-1.8-19.3,3.7-24.8c13.8-13.8,40.3-1,36.8,17.5
					C2666.9,4176.1,2637.7,4181.7,2630.4,4162.3z"/>
				<path class="st4" d="M1748.7,4153.1c-7.6-20.2,0.9-32.2,23-32.2c13.8,0,18.1,5.5,15.6,20.2
					C1783.2,4165.9,1756.8,4174.4,1748.7,4153.1z"/>
				<path class="st4" d="M2732.5,4143c-11-11-12.1-17.6-4.6-26.7c13.6-16.7,36.8-7.4,36.8,13.8C2764.7,4155,2750,4160.5,2732.5,4143
					z"/>
				<path class="st4" d="M1654.9,4126.4c-7.4-19.3,2.8-33.1,24.8-33.1c13.8,0,18.1,5.5,15.6,20.2
					C1691.2,4138.3,1663.1,4147.6,1654.9,4126.4z"/>
				<path class="st4" d="M2831.9,4123.7c-13.8-4.7-15.6-35.9-3.7-43.3c14.8-9.2,37.7,4.6,37.7,22.1
					C2866,4120,2850.4,4130,2831.9,4123.7z"/>
				<path class="st4" d="M1559.2,4083.2c0-12.9,6.4-17.5,23-17.5s23,4.6,23,17.5C1605.2,4114.6,1559.2,4116.4,1559.2,4083.2z"/>
				<path class="st4" d="M2915.7,4079.5c-3.7-8.3-1.8-19.3,3.7-24.8c13.8-13.8,40.3-1,36.8,17.5
					C2952.2,4093.3,2923,4098.8,2915.7,4079.5z"/>
				<path class="st4" d="M1467.1,4045.4c0-21.2,35.1-23,43.3-1.8C1520,4068.6,1467.1,4095.3,1467.1,4045.4z"/>
				<path class="st4" d="M3004,4027c0-12.9,5.5-17.2,21.2-14.7c12.9,2.1,20.2,9.2,20.2,21.2C3045.4,4057.3,3004,4071.9,3004,4027z"
					/>
				<path class="st4" d="M1384.3,4024.3c-14.8-17.4-4.6-43.3,15.6-39.6s26.8,39.8,8.3,46.9
					C1400.9,4034.5,1389.8,4030.7,1384.3,4024.3z"/>
				<path class="st4" d="M3093.3,3997.6c-6.7-17.4,16.5-36.8,35.9-29.4c7.4,2.8,12.7,12.8,11,21.2
					C3136.2,4009.5,3100.4,4016.1,3093.3,3997.6z"/>
				<path class="st4" d="M1292.3,3965.4c0-24.8,17.5-33.1,34.1-16.6C1358.3,3980.8,1292.3,3998.6,1292.3,3965.4z"/>
				<path class="st4" d="M3182.6,3950.7c-3.7-8.3-1.8-19.3,3.7-24.8c13.8-13.8,40.3-1,36.8,17.5
					C3219.1,3964.4,3189.9,3970,3182.6,3950.7z"/>
				<path class="st4" d="M1203.9,3923c-3.7-8.3-1.8-19.3,3.7-24.8c13.8-13.8,40.3-1,36.8,17.5
					C1240.5,3936.8,1211.3,3942.4,1203.9,3923z"/>
				<path class="st4" d="M3270.9,3904.6c-9.3-11-9.2-16.6,0-26.7c14.7-18.4,38.6-7.4,35,15.6
					C3302.1,3917.5,3286.5,3923.1,3270.9,3904.6z"/>
				<path class="st4" d="M1120.2,3866.9c-2.8-7.4-0.9-18.4,4.6-23.9c14.7-14.7,38.7-1.8,38.7,20.2
					C1163.4,3885.3,1128.5,3889,1120.2,3866.9z"/>
				<path class="st4" d="M3347.3,3839.3c-10.7-27.5,43.3-41.7,43.3-2.8C3390.5,3858.6,3355.6,3860.5,3347.3,3839.3z"/>
				<path class="st4" d="M1041.9,3815.4c-6.3-16.6,1.8-35,14.7-35c16.6,0,31.9,19.2,26.7,33.1
					C1077.5,3829.1,1047.6,3830.1,1041.9,3815.4z"/>
				<path class="st4" d="M3431,3785c-3.7-8.3-1.8-19.3,3.7-24.8c13.8-13.8,40.3-1,36.8,17.5C3467.6,3798.8,3438.4,3804.3,3431,3785z
					"/>
				<path class="st4" d="M971.1,3759.2c-14.7-14.7-12.8-31.2,4.6-37.7c19.4-7.3,31.3,0.9,31.3,22.1
					C1007,3763.8,985.8,3774,971.1,3759.2z"/>
			</g>
			<path class="st4" d="M3519.5,3720.6c-3.7-8.3-1.8-19.3,3.7-24.8c13.8-13.8,40.3-1,36.8,17.5
				C3556,3734.3,3526.8,3739.9,3519.5,3720.6z M904.9,3682.9c-2.8-7.4-0.9-18.4,4.6-23.9c14.7-14.7,38.7-1.8,38.7,20.2
				C948.2,3701.3,913.2,3704.9,904.9,3682.9z M3589.4,3640.5c0-12.9,5.5-17.2,21.2-14.7c12.9,2.1,20.2,9.2,20.2,21.2
				C3630.8,3670.8,3589.4,3685.4,3589.4,3640.5z M834.1,3619.4c-7.6-20.2,0.9-32.2,23-32.2c13.8,0,18.1,5.5,15.6,20.2
				C868.6,3632.2,842.1,3640.6,834.1,3619.4z M3656.6,3581.6c-2.8-7.4-0.9-18.4,4.6-23.9c14.7-14.7,38.7-1.8,38.7,20.2
				C3699.9,3600,3664.9,3603.7,3656.6,3581.6z M767.8,3545.7c-3.7-8.3-1.8-19.3,3.7-24.8c13.8-13.8,40.3-1,36.8,17.5
				C804.3,3559.5,775.2,3565.1,767.8,3545.7z M3725.6,3511.7c-6.3-16.6,1.8-35,14.7-35c16.6,0,31.9,19.2,26.7,33.1
				C3761.2,3525.4,3731.2,3526.4,3725.6,3511.7z M703.4,3473c-7.3-19.3,12.1-42.6,29.4-35.9c18.5,7.1,11.9,42.9-8.3,46.9
				C716.2,3485.7,706.2,3480.4,703.4,3473z M3786.4,3436.2c-7.4-19.3,2.8-33.1,24.8-33.1c13.8,0,18.1,5.5,15.6,20.2
				C3822.7,3448.1,3794.6,3457.4,3786.4,3436.2z M646.3,3382.8c4.2-24.8,30.6-33.2,38.7-12c7.6,20.2-0.9,32.2-23,32.2
				C648.2,3403.1,643.8,3397.6,646.3,3382.8z M3841.6,3353.4c-7.4-19.3,2.8-33.1,24.8-33.1c13.8,0,18.1,5.5,15.6,20.2
				C3877.9,3365.3,3849.8,3374.6,3841.6,3353.4z M589.3,3302.8c0-24.8,17.5-33.1,34.1-16.6C655.3,3318.2,589.3,3336,589.3,3302.8z
				 M3896.8,3269.6c-3.7-8.3-1.8-19.3,3.7-24.8c13.8-13.8,40.3-1,36.8,17.5C3933.4,3283.4,3904.2,3289,3896.8,3269.6z M537.7,3223.6
				c-3.7-8.3-1.8-19.3,3.7-24.8c13.8-13.8,40.3-1,36.8,17.5C574.3,3237.4,545.1,3243,537.7,3223.6z M3951.1,3190.5
				c-14.7-14.7-4.6-35.9,15.6-35.9c23,0,32,16.4,18.4,32.2C3971.1,3203.2,3964.9,3204.3,3951.1,3190.5z M488,3125.2
				c0-12.9,5.5-17.2,21.2-14.7c12.9,2.1,20.2,9.2,20.2,21.2C529.4,3155.4,488,3170,488,3125.2z M3991.6,3102.1
				c-10.8-10.4-6.4-30.4,7.4-35.9c18.4-7.4,41.3,11.9,35,29.4C4029.3,3108.6,4002.9,3112.9,3991.6,3102.1z M447.5,3047.8
				c-3.6-9.2-1.8-20.2,2.8-24.8c12.9-12.9,39.3-0.1,35.9,18.4C482.2,3063.4,455.1,3067.1,447.5,3047.8z M4031.2,2999.1
				c0-24.8,17.5-33.1,34.1-16.6C4097.2,3014.5,4031.2,3032.3,4031.2,2999.1z M408.9,2956.7c-3.7-8.3-1.8-19.3,3.7-24.8
				c13.8-13.8,40.3-1,36.8,17.5C445.4,2970.5,416.2,2976.1,408.9,2956.7z M4068,2907c0-24.8,17.5-33.1,34.1-16.6
				C4134,2922.4,4068,2940.3,4068,2907z M384,2872.1c-13.6-13.1-6.4-39.6,11-39.6C446,2832.5,411.4,2898.5,384,2872.1z
				 M4099.3,2818.7c-3.7-8.3-1.8-19.3,3.7-24.8c13.8-13.8,40.3-1,36.8,17.5C4135.8,2832.5,4106.6,2838,4099.3,2818.7z M361.9,2780
				c-22.3-8.4-11.5-70.4,23-35.9c12.9,12.9,12.9,16.6,1.8,27.6C379.4,2778.2,367.5,2782.8,361.9,2780z M4123.2,2711
				c0-12.9,5.5-17.2,21.2-14.7c12.9,2.1,20.2,9.2,20.2,21.2C4164.6,2741.3,4123.2,2755.9,4123.2,2711z M326.1,2671.4
				c-3.7-8.3-1.8-19.3,3.7-24.8c13.8-13.8,40.3-1,36.8,17.5C362.6,2685.2,333.4,2690.8,326.1,2671.4z M4144.4,2624.5
				c-2.8-7.4-0.9-18.4,4.6-23.9c14.7-14.7,38.7-1.8,38.7,20.2C4187.6,2642.9,4152.7,2646.6,4144.4,2624.5z M315.9,2586.8
				c-15.6-5.5-15.5-36.5,0-42.3c18.6-7,35.4,7.3,32.2,25.8C344.9,2588.5,333.4,2594.1,315.9,2586.8z M4163.7,2533.4
				c-15.2-41.1,53.5-44.5,36.8-0.9C4193.4,2551,4170.5,2551.7,4163.7,2533.4z M292.9,2480.9c-7.2-19.4,1.8-35,20.2-35
				c17.5,0,31.2,23,22.1,37.7C327.9,2495.6,297.7,2493.8,292.9,2480.9z M4172.9,2432.2c-3.7-8.3-1.8-19.3,3.7-24.8
				c13.8-13.8,40.3-1,36.8,17.5C4209.4,2445.9,4180.3,2451.5,4172.9,2432.2z M282.8,2377.9c-2.7-7.4,0-17.5,6.4-23
				c16.5-13.9,44.2-2.8,40.5,16.6S289.4,2396.2,282.8,2377.9z M4190.4,2347.5c-22.3-8.4-11.5-70.4,23-35.9
				c12.9,12.9,12.9,16.6,1.8,27.6C4207.9,2345.7,4195.9,2350.3,4190.4,2347.5z M304.9,2252.7c13.8,0,18.1,5.5,15.6,20.2
				C310.2,2334.5,243.9,2252.7,304.9,2252.7z M4180.3,2223.3c2-13.8,9.2-21.2,21.2-21.2c27.6,0,24.8,35.7-2.8,39.6
				C4180.2,2244.3,4177.6,2241.7,4180.3,2223.3z M285.6,2183.7c-13.6-15.8-4.6-32.2,18.4-32.2c20.2,0,30.4,21.2,15.6,35.9
				C305.8,2201.2,299.6,2200.1,285.6,2183.7z M4178.4,2136.8c-10.1-11-9.9-16.3,1.8-27.6c13.1-12.6,15.6-12.9,29.4,0.9
				c12,12,12.9,18.4,4.6,28.5C4200.6,2155.2,4192.2,2155.2,4178.4,2136.8z M289.2,2082.5c-3.7-8.3-1.8-19.3,3.7-24.8
				c13.8-13.8,40.3-1,36.8,17.5C325.8,2096.2,296.6,2101.8,289.2,2082.5z M4167.4,2039.2c-16.7-46.7,57-46.9,41.4,0
				c-2.8,5.5-12,11-21.2,11S4169.3,2044.7,4167.4,2039.2z M298.4,1984.9c-7.4-12.9,19.5-39.9,32.2-32.2c17.7,10.7,12,42.3-7.4,42.3
				C313.2,1995,302.1,1990.4,298.4,1984.9z M4153.6,1934.3c-2.8-7.4-0.9-18.4,4.6-23.9c14.7-14.7,38.7-1.8,38.7,20.2
				C4196.8,1952.7,4161.9,1956.4,4153.6,1934.3z M316.9,1889.2c-3.7-8.3-1.8-19.3,3.7-24.8c13.8-13.8,40.3-1,36.8,17.5
				C353.4,1903,324.2,1908.5,316.9,1889.2z M4132.4,1827.5c0-12,6.4-16.6,23.9-16.6c19.3,0,22.7,3.6,20.2,20.2
				C4172.4,1859.2,4132.4,1871.7,4132.4,1827.5z M339.9,1796.2c-9.2-11-8.3-16.6,2.8-28.5c17.5-16.6,35-9.2,35,15.6
				C377.6,1805.4,354.5,1813.8,339.9,1796.2z M4108.5,1745.6c-2.8-5.5,0.9-16.6,9.2-24.8c13.8-13.8,15.6-13.8,29.4,0
				c17.5,17.5,10.1,35-14.7,35C4123.2,1755.8,4112.2,1751.1,4108.5,1745.6z M362.9,1695.9c-3.7-8.3-1.8-19.3,3.7-24.8
				c13.8-13.8,40.3-1,36.8,17.5C399.4,1709.7,370.2,1715.3,362.9,1695.9z M4105.7,1617.7c12.9,0,17.5,6.4,17.5,23s-4.6,23-17.5,23
				C4062.5,1663.7,4080.3,1617.7,4105.7,1617.7z M396,1594.7c0-16.6,4.6-23,17.5-23c21.2,0,31.3,21.2,16.6,35.9
				C412.6,1625.1,396,1618.6,396,1594.7z M4053.3,1557.9c-6.2-16.7,2.8-32.2,20.2-32.2c18.4,0,27.8,27.9,12,37.7
				C4067.3,1574.8,4059,1573.4,4053.3,1557.9z M431,1514.6c-7.1-19.4,1.8-35,22.1-35c12.9,0,17.5,5.5,14.7,20.2
				C465,1522.9,437.7,1532.9,431,1514.6z M4014.6,1459.4c2-13.8,9.2-21.2,21.2-21.2c27.6,0,24.8,35.7-2.8,39.6
				C4014.6,1480.4,4012,1477.8,4014.6,1459.4z M473.3,1419.8c-3.7-8.3-1.8-19.3,3.7-24.8c13.8-13.8,40.3-1,36.8,17.5
				C509.8,1433.6,480.7,1439.2,473.3,1419.8z M3970.4,1373.8c-3.7-8.3-1.8-19.3,3.7-24.8c13.8-13.8,40.3-1,36.8,17.5
				C4007,1387.6,3977.8,1393.2,3970.4,1373.8z M527.6,1344.4c-22.3-8.4-11.5-70.4,23-35.9c12.9,12.9,12.9,16.6,1.8,27.6
				C545.1,1342.5,533.1,1347.1,527.6,1344.4z M3920.7,1275.4c0-12.9,5.5-17.2,21.2-14.7c12.9,2.1,20.2,9.2,20.2,21.2
				C3962.1,1305.6,3920.7,1320.2,3920.7,1275.4z M563.5,1238.5c3.9-27.6,39.6-30.4,39.6-2.8c0,12-7.4,19.2-21.2,21.2
				C563.5,1259.6,560.9,1257,563.5,1238.5z M3894,1176c13.8,0,18.1,5.5,15.6,20.2C3899.4,1257.7,3833.1,1176,3894,1176z
				 M618.7,1155.7c2-13.8,9.2-21.2,21.2-21.2c27.6,0,24.8,35.7-2.8,39.6C618.7,1176.7,616.1,1174.1,618.7,1155.7z M3838.8,1093.1
				c13.8,0,18.1,5.5,15.6,20.2C3844.2,1174.9,3777.8,1093.1,3838.8,1093.1z M684.1,1095.9c-13.8-4.7-15.6-35.9-3.7-43.3
				c14.8-9.2,37.7,4.6,37.7,22.1S702.5,1102.2,684.1,1095.9z M3758.8,1042.5c-3.7-8.3-1.8-19.3,3.7-24.8c13.8-13.8,40.3-1,36.8,17.5
				C3795.3,1056.3,3766.1,1061.8,3758.8,1042.5z M738.3,999.3c4.2-24.8,30.6-33.2,38.7-12c7.6,20.2-0.9,32.2-23,32.2
				C740.2,1019.5,735.9,1014,738.3,999.3z M3694.3,969.8c-7.4-19.3,2.8-33.1,24.8-33.1c13.8,0,18.1,5.5,15.6,20.2
				C3730.7,981.7,3702.5,991,3694.3,969.8z M798.2,933c-6.7-17.4,16.5-36.8,35.9-29.4c7.4,2.8,12.7,12.9,11,21.2
				C841,944.9,805.3,951.5,798.2,933z M3626.2,886.1c0-16.6,4.6-23,17.5-23c22.1,0,30.3,11.9,23,31.3
				C3657.4,919.2,3626.2,912.8,3626.2,886.1z M868.1,857.5c-5.5-15.6,13-33.5,29.4-28.5c5.6,1.7,10.1,12,12,23
				c2.7,15.7-1.8,20.2-16.6,20.2C882.8,872.3,871.8,865.8,868.1,857.5z M3564.6,838.2c-13.8-4.7-15.6-35.9-3.7-43.3
				c14.8-9.2,37.7,4.6,37.7,22.1S3583,844.5,3564.6,838.2z M942.7,794c-3.7-8.3-1.8-19.3,3.7-24.8c13.8-13.8,40.3-1,36.8,17.5
				C979.2,807.8,950,813.4,942.7,794z M3491,773.8c-13.8-4.7-15.6-35.9-3.7-43.3c14.8-9.2,37.7,4.6,37.7,22.1
				S3509.4,780.1,3491,773.8z M1016.3,729.6c-3.7-8.3-1.8-19.3,3.7-24.8c13.8-13.8,40.3-1,36.8,17.5
				C1052.8,743.4,1023.6,748.9,1016.3,729.6z M3405.4,692.8c0-16.6,4.6-23,17.5-23c23.9,0,33.1,15.6,19.3,32.2
				C3424.7,723.1,3405.4,718.6,3405.4,692.8z M1095.4,658.8c0-21.2,35.1-23,43.3-1.8C1148.3,681.9,1095.4,708.6,1095.4,658.8z
				 M3329,654.2c-20-19.6,1.8-51.5,28.5-42.3c15.6,6.4,13.8,36.8-3.7,43.3S3336.4,661.4,3329,654.2z M1190.2,626.5
				c-19.3-7.3-13.8-39.6,5.5-39.6c10.1,0,21.2,4.6,24.8,10.1C1227.9,610,1204.9,632.1,1190.2,626.5z M3243.4,591.6
				c-6.2-16.7,2.8-32.2,20.2-32.2c18.4,0,27.8,27.9,12,37.7C3257.4,608.5,3249.2,607.1,3243.4,591.6z M1264.8,564
				c-3.7-8.3-1.8-19.3,3.7-24.8c13.8-13.8,40.3-1,36.8,17.5C1301.3,577.7,1272.1,583.3,1264.8,564z M3154.1,537.3
				c-8-20.4,17.5-38.7,34.1-23.9c17.5,13.8,9.2,36.8-12.9,36.8C3166.1,550.2,3157,544.6,3154.1,537.3z M1346.7,517
				c-2.8-7.4-0.9-18.4,4.6-23.9c14.7-14.7,38.7-1.8,38.7,20.2C1389.9,535.4,1354.9,539.1,1346.7,517z M3064.9,484.8
				c0-12.9,6.4-17.5,23-17.5s23,4.6,23,17.5C3110.9,516.2,3064.9,518.1,3064.9,484.8z M1438.7,471c-2.8-7.4-0.9-18.4,4.6-23.9
				c14.7-14.7,38.7-1.8,38.7,20.2S1447,493.1,1438.7,471z M2975.6,452.6c-2.8-7.4-0.9-18.4,4.6-23.9c14.7-14.7,38.7-1.8,38.7,20.2
				C3018.8,471,2983.9,474.7,2975.6,452.6z M1531.6,435.1c-3.7-8.3-1.8-19.3,3.7-24.8c13.8-13.8,40.3-1,36.8,17.5
				C1568.2,448.9,1539,454.5,1531.6,435.1z M2883.6,415.8c-10.7-27.5,43.3-41.7,43.3-2.8C2926.8,435.1,2891.8,437,2883.6,415.8z
				 M1630.1,413c-17.4-11.2-5.5-37.7,17.5-37.7c14.7,0,19.3,4.6,16.6,20.2C1661.4,418.6,1648.6,424.9,1630.1,413z M2792.5,389.1
				c-3.7-8.3-1.8-19.3,3.7-24.8c13.8-13.8,40.3-1,36.8,17.5C2829,402.9,2799.8,408.4,2792.5,389.1z M1727.7,387.3
				c-9.2-8.3-7.4-37.7,1.8-44.2c4.6-2.8,15.6,1.8,23.9,10.1c11,11,12.1,17.6,3.7,27.6C1745.4,394.8,1736.9,397.4,1727.7,387.3z
				 M2694,362.4c-2.7-7.4,0.8-18.5,8.3-24.8c10.9-9.3,16.6-8.3,28.5,2.8C2762.9,376.4,2702.5,385.8,2694,362.4z M1816.9,352.3
				c-3.7-8.3-1.8-19.3,3.7-24.8c13.8-13.8,40.3-1,36.8,17.5C1853.5,366.1,1824.3,371.6,1816.9,352.3z M2599.2,343.1
				c-3.7-8.3-1.8-19.3,3.7-24.8c13.8-13.8,40.3-1,36.8,17.5C2635.7,356.9,2606.6,362.4,2599.2,343.1z M1912.6,336.7
				c-16.7-46.7,57-46.9,41.4,0c-2.8,5.5-12,11-21.2,11C1923.7,347.7,1914.6,342.1,1912.6,336.7z M2018.5,332.1
				c-21.3-9.1-14.5-54.8,23-42.3c5.5,2.8,11,12,11,21.2C2052.5,328.4,2036.9,338.5,2018.5,332.1z M2500.7,325.6
				c-2.7-7.4,0.8-18.5,8.3-24.8c10.9-9.3,16.6-8.3,28.5,2.8C2569.6,339.6,2509.2,348.9,2500.7,325.6z M2114.2,322.8
				c-10.8-10.4-7.4-37.7,6.4-42.3c21.6-8.7,51.1,31.8,18.4,43.3C2121.5,329.9,2121.7,330,2114.2,322.8z M2405.9,315.5
				c-3.7-8.3-1.8-19.3,3.7-24.8c13.8-13.8,40.3-1,36.8,17.5C2442.5,329.2,2413.3,334.8,2405.9,315.5z M2207.1,309
				c-6.3-16.6,1.8-35,14.7-35c16.6,0,31.9,19.2,26.7,33.1C2242.7,322.7,2212.8,323.7,2207.1,309z M2303.8,305.4
				c-2.8-7.4-0.9-18.4,4.6-23.9c14.7-14.7,38.7-1.8,38.7,20.2S2312.1,327.5,2303.8,305.4z"/>
		</g>
	</g>
</g>
<g id="Layer_2">
</g>
</svg>
