<?xml version="1.0" encoding="utf-8"?>
<!-- Generator: Adobe Illustrator 25.0.0, SVG Export Plug-In . SVG Version: 6.00 Build 0)  -->
<svg version="1.1" id="Layer_4" xmlns="http://www.w3.org/2000/svg" xmlns:xlink="http://www.w3.org/1999/xlink" x="0px" y="0px"
	 viewBox="0 0 4499.2 4498.2" height = "100%" width = "100%" style="enable-background:new 0 0 4499.2 4498.2;" xml:space="preserve">
<style type="text/css">
	.st0{fill:none;stroke:#FFFFFF;stroke-width:100;stroke-miterlimit:10;}
</style>
<g>
	<g>
		<path class="st0" d="M2055.3,4395.5c-780.9-73.3-1422.9-555.2-1739.9-1206.2C-241.9,2045,310.5,662.5,1518.7,223.1
			C2798.8-242.6,4206.9,594.4,4389.3,1985c17.8,135.9,15.6,422.8-3.8,555.7C4213.3,3719.5,3167.3,4499.8,2055.3,4395.5z"/>
		<path class="st0" d="M4060.4,2245.4c-0.7-13.4-12.7-246.7-34.8-356.2C3785.3,701,2475.1,76,1416.5,617.3
			c-580.8,297-956,858.4-1003.1,1511.1c-3.1,43.3,0.4,146.5,2.8,230.1c4.5,162,52.7,383.7,118.7,551.3
			c303.2,769.1,1091.5,1247.6,1894,1155.9c866.3-99,1542.4-774.2,1626.2-1663.9C4064.2,2304.2,4061.1,2258.8,4060.4,2245.4z
			 M4025.6,1889.2c22.1,109.5,35.2,334.5,35.9,347.9c0.7,13.4,2.7,67.1-6.4,164.7l4.3-175.1c-20.4,3.1-26.4-1.6-210.5-1.6
			c-180.4,0-209.9,2.6-242,17.5c-43.3,20.1-82,58.9-95.7,95.7c-6.5,17.5-10.1,175.8-10.1,461.1c0,432.5,0.2,434.5-20.2,474.9
			c-50.1,98.8-189.7,98.1-239.3,0c-36.4-72,2.3-1656.8-31.3-1737.5c-33.7-80.8-115.8-126-197.9-111.4c-22,3.9-43.3,7.4-46.9,8.3
			c-16.6,0.9-85.1,71.6-96.6,98.5c-10.6,24.7-12,224.6-12,1107.1c0,1165.1-7,1067.7-7,1100.9c0,33.2-40.4,82.6-120.7,82.6
			s-132.7-31.3-132.7-65.4c0-48.4-17.1-952-20.2-3019.5c-0.1-71.6-104.7-119.6-164.7-119.6s-194.2,28.7-194.2,119.6
			s-9.2,2200.4-9.2,2200.4l-21.2,30.4c-59.7,83.6-184.8,71.9-229.2-9.2c-18.7-34.3-25.8-1353-25.8-1404s-81.6-134.8-181.2-134.8
			s-182.4,86-182.4,158.1s3.1,1023-18.4,1058.6c-56.4,93.4-196.1,87.5-240.2-11c-15.7-35-17.5-66.3-17.5-394.8
			c0-379.2,0.3-383.1-45.1-433.5c-19.2-21.3-70-46.9-109.5-54.3c-72.7-13.7-158.3,33.1-194.2,106.8c-16.6,34-19.3,57.1-19.3,152.8
			c0,127.9-10.2,161.9-58.9,196.9c-26.7,19.3-38.7,20-234.7,23c-162.9,2.5-202.3,3.6-217.9,0.7"/>
	</g>
	<g>
		<circle class="st0" cx="2069.8" cy="4235" r="29.6"/>
		<circle class="st0" cx="1703.8" cy="4166.1" r="29.6"/>
		<circle class="st0" cx="1366.8" cy="4034.9" r="29.6"/>
		<circle class="st0" cx="1064.4" cy="3848.7" r="29.6"/>
		<circle class="st0" cx="802" cy="3614.5" r="29.6"/>
		<circle class="st0" cx="585.2" cy="3339.5" r="29.6"/>
		<circle class="st0" cx="416.8" cy="3024.4" r="29.6"/>
		<circle class="st0" cx="305" cy="2675.2" r="29.6"/>
		<circle class="st0" cx="259.8" cy="2321.1" r="29.6"/>
		<circle class="st0" cx="278.3" cy="1970.2" r="29.6"/>
		<circle class="st0" cx="357.3" cy="1630.5" r="29.6"/>
		<circle class="st0" cx="493.7" cy="1310.1" r="29.6"/>
		<circle class="st0" cx="684.5" cy="1017" r="29.6"/>
		<circle class="st0" cx="926.5" cy="759.4" r="29.6"/>
		<circle class="st0" cx="1216.6" cy="545.2" r="29.6"/>
		<circle class="st0" cx="1551.8" cy="382.5" r="29.6"/>
		<circle class="st0" cx="1909.5" cy="284.4" r="29.6"/>
		<circle class="st0" cx="2267" cy="254.8" r="29.6"/>
		<circle class="st0" cx="2617" cy="289.5" r="29.6"/>
		<circle class="st0" cx="2952.1" cy="384.3" r="29.6"/>
		<circle class="st0" cx="3264.6" cy="535.1" r="29.6"/>
		<circle class="st0" cx="3547.1" cy="737.6" r="29.6"/>
		<circle class="st0" cx="3792" cy="987.8" r="29.6"/>
		<circle class="st0" cx="3991.9" cy="1281.4" r="29.6"/>
		<circle class="st0" cx="4139.1" cy="1614.4" r="29.6"/>
		<circle class="st0" cx="4226.3" cy="1982.5" r="29.6"/>
		<circle class="st0" cx="4238.6" cy="2351.9" r="29.6"/>
		<circle class="st0" cx="4189.3" cy="2708.1" r="29.6"/>
		<circle class="st0" cx="4069.8" cy="3059.9" r="29.6"/>
		<circle class="st0" cx="3894.2" cy="3374.5" r="29.6"/>
		<circle class="st0" cx="3669.7" cy="3647.6" r="29.6"/>
		<circle class="st0" cx="3403.6" cy="3874.6" r="29.6"/>
		<circle class="st0" cx="3103.3" cy="4051.3" r="29.6"/>
		<circle class="st0" cx="2776.1" cy="4173.1" r="29.6"/>
		<circle class="st0" cx="2429.1" cy="4235.9" r="29.6"/>
		<circle class="st0" cx="2069.8" cy="4235" r="29.6"/>
	</g>
</g>
</svg>
